<?xml version="1.0" standalone="no"?>
<!DOCTYPE svg PUBLIC "-//W3C//DTD SVG 20010904//EN"
 "http://www.w3.org/TR/2001/REC-SVG-20010904/DTD/svg10.dtd">
<svg version="1.0" xmlns="http://www.w3.org/2000/svg"
 width="50.000000pt" height="50.000000pt" viewBox="0 0 200.000000 195.000000"
 preserveAspectRatio="xMidYMid meet">

<g transform="translate(0.000000,195.000000) scale(0.100000,-0.100000)"
fill="#FFF" stroke="none">
<path d="M775 1930 c-13 -14 -31 -20 -59 -20 -28 0 -54 -8 -78 -25 -24 -16
-51 -25 -75 -25 -33 0 -44 -7 -88 -54 -31 -34 -62 -57 -80 -61 -52 -10 -78
-29 -90 -64 -9 -27 -20 -37 -51 -48 -53 -18 -80 -51 -88 -110 -13 -96 -17
-103 -57 -128 -49 -32 -73 -76 -66 -126 4 -30 0 -42 -19 -60 -13 -12 -24 -32
-24 -43 0 -40 80 -159 274 -410 40 -52 40 -57 20 -154 -4 -21 -2 -43 6 -58 11
-20 10 -28 -12 -61 -38 -58 -41 -76 -17 -107 30 -38 85 -63 202 -91 134 -32
153 -39 198 -80 44 -39 73 -49 126 -43 28 3 41 0 53 -14 9 -11 64 -33 133 -54
72 -21 134 -46 159 -64 58 -42 85 -40 97 8 6 21 24 51 41 67 28 26 30 34 30
96 0 43 5 70 13 78 8 6 72 25 143 42 166 40 298 75 351 95 33 12 44 23 57 54
9 23 13 52 9 73 -4 26 0 45 16 70 13 22 21 51 21 80 0 35 5 49 19 56 46 25 58
97 53 342 -2 80 -23 129 -67 153 -11 6 -22 12 -24 13 -2 1 -5 30 -8 65 -5 75
-19 109 -55 126 -21 10 -27 21 -33 61 -4 28 -19 70 -35 94 -24 39 -37 48 -94
67 -63 21 -67 24 -87 70 -21 50 -62 80 -108 80 -12 0 -45 14 -74 30 -44 25
-65 30 -118 30 -54 0 -71 4 -99 25 -52 39 -99 48 -173 34 -49 -9 -76 -9 -110
0 -69 17 -111 14 -132 -9z m123 -46 c12 -14 22 -35 22 -47 0 -12 -14 -143 -30
-292 -30 -270 -35 -333 -24 -323 3 3 23 127 45 274 22 148 46 288 55 311 19
53 75 103 113 103 16 0 31 -6 34 -13 2 -6 -1 -52 -9 -102 -7 -49 -11 -91 -9
-93 2 -2 13 29 25 70 26 87 29 93 42 80 11 -11 -7 -90 -103 -450 -39 -144 -69
-268 -66 -275 2 -6 55 141 117 328 121 360 133 385 190 385 39 0 73 -33 65
-63 -4 -12 -70 -179 -147 -372 -77 -192 -142 -357 -145 -365 -4 -11 -3 -12 5
-5 6 6 69 139 140 295 196 433 200 440 258 440 42 0 64 -23 64 -65 0 -38 -10
-59 -267 -533 -97 -178 -173 -325 -170 -328 2 -3 93 147 202 333 204 350 251
423 274 431 20 7 6 -30 -45 -122 -72 -128 -56 -116 88 72 46 60 48 61 78 51
35 -13 60 -54 60 -97 0 -40 -31 -85 -286 -408 -119 -152 -214 -278 -211 -280
3 -3 65 66 138 152 342 403 370 434 388 434 10 0 23 -6 29 -13 17 -21 25 -89
13 -120 -6 -15 -99 -120 -207 -233 -108 -112 -194 -207 -191 -211 3 -3 34 21
69 54 243 228 358 333 368 333 6 0 22 -11 35 -25 25 -24 33 -73 19 -110 -9
-22 -186 -166 -471 -385 -133 -101 -240 -186 -238 -188 2 -2 162 105 355 238
193 133 359 243 368 244 12 1 18 -8 20 -30 3 -35 -14 -52 -146 -139 -40 -26
-70 -50 -68 -53 3 -2 43 19 90 48 78 48 116 58 116 31 0 -28 -150 -125 -422
-272 -76 -41 -138 -77 -138 -82 0 -4 108 47 240 113 132 66 244 120 250 120
18 0 12 -85 -8 -102 -30 -27 -154 -84 -455 -208 -155 -64 -65 -39 174 49 220
81 245 88 257 73 14 -18 7 -50 -17 -74 -18 -19 -115 -49 -456 -144 -264 -73
-322 -95 -149 -59 29 6 31 5 42 -33 17 -55 15 -76 -7 -96 -11 -10 -29 -38 -40
-62 l-21 -44 -38 16 c-20 9 -88 37 -151 61 -140 54 -135 50 -118 76 14 22 14
22 -80 22 l-94 0 -40 42 c-21 23 -41 38 -44 34 -5 -9 -101 9 -191 35 -54 16
-131 64 -141 89 -3 8 5 34 17 56 15 31 20 52 15 78 -4 24 -1 43 9 56 14 20 15
20 38 -2 13 -12 48 -54 78 -92 57 -73 84 -93 53 -40 -10 17 -121 174 -247 350
-195 273 -227 323 -222 345 4 14 11 24 16 22 5 -2 78 -102 162 -224 180 -259
197 -283 198 -268 0 6 -70 125 -157 265 -170 276 -197 329 -188 360 7 21 36
43 71 53 18 6 31 -16 124 -214 156 -331 149 -287 -19 124 -66 160 -75 205 -23
110 38 -71 40 -62 7 31 -27 76 -32 147 -12 162 26 21 57 22 68 2 5 -11 48
-154 95 -317 95 -334 93 -327 100 -320 3 3 -29 152 -70 331 -42 179 -76 336
-76 350 0 50 17 77 49 77 18 0 31 -6 36 -17 4 -10 24 -121 45 -247 22 -125 42
-231 46 -235 4 -3 4 10 1 29 -21 118 -57 451 -52 481 9 51 54 104 83 95 28 -9
29 -13 48 -381 25 -490 31 -495 33 -22 l1 428 25 24 c13 14 36 25 50 25 l27 0
-5 -472 c-3 -260 -4 -459 -1 -443 2 17 13 199 24 405 11 206 23 403 26 438 11
108 63 141 122 76z"/>
</g>
</svg>
