<?xml version="1.0" standalone="no"?>
<!DOCTYPE svg PUBLIC "-//W3C//DTD SVG 20010904//EN"
 "http://www.w3.org/TR/2001/REC-SVG-20010904/DTD/svg10.dtd">
<svg version="1.0" xmlns="http://www.w3.org/2000/svg"
 width="10.000000pt" height="10.000000pt" viewBox="0 0 40.000000 40.000000"
 preserveAspectRatio="xMidYMid meet">

<g transform="translate(0.000000,40.000000) scale(0.100000,-0.100000)"
fill="lime" stroke="none">
<path d="M130 389 c-46 -19 -90 -60 -110 -104 -23 -51 -24 -56 -9 -52 6 1 14
-4 17 -12 3 -9 0 -11 -9 -6 -8 5 -10 4 -6 0 4 -5 14 -10 23 -11 14 -2 14 0 0
21 -17 26 -21 55 -8 55 4 0 14 -16 21 -36 7 -19 15 -33 18 -31 2 3 0 14 -6 25
-14 26 -22 73 -14 86 4 6 15 -14 25 -44 10 -30 16 -44 13 -30 -13 67 -17 104
-10 98 4 -4 14 0 21 10 17 23 23 7 27 -78 3 -62 3 -61 5 18 2 74 12 103 25 70
3 -8 6 -6 6 5 2 34 21 16 22 -20 l1 -38 8 33 c4 18 11 36 14 40 13 12 26 -22
21 -53 -5 -29 -4 -29 8 4 7 19 19 37 27 39 13 5 12 -6 -5 -65 -3 -10 2 -3 11
15 10 17 24 32 31 32 17 0 17 -3 -7 -53 -12 -23 -15 -34 -7 -25 8 10 17 15 21
11 4 -4 4 1 0 11 -5 13 -4 17 4 12 6 -3 13 -2 17 4 3 5 10 10 16 10 19 0 8
-35 -27 -79 l-36 -46 40 44 c27 29 42 39 47 31 4 -7 -10 -30 -36 -58 l-44 -45
48 38 c26 20 47 36 48 34 10 -34 3 -77 -15 -92 -20 -17 -20 -17 -1 -10 43 14
46 58 11 135 -43 92 -157 142 -246 107z"/>
<path d="M143 290 c0 -36 2 -50 4 -32 2 17 2 47 0 65 -2 17 -4 3 -4 -33z"/>
<path d="M92 305 c0 -16 2 -22 5 -12 2 9 2 23 0 30 -3 6 -5 -1 -5 -18z"/>
<path d="M172 280 c0 -14 2 -19 5 -12 2 6 2 18 0 25 -3 6 -5 1 -5 -13z"/>
<path d="M206 274 c-4 -14 -5 -28 -3 -31 3 -2 8 8 11 23 4 14 5 28 3 31 -3 2
-8 -8 -11 -23z"/>
<path d="M236 275 c-9 -26 -7 -32 5 -12 6 10 9 21 6 23 -2 3 -7 -2 -11 -11z"/>
<path d="M240 220 c-6 -11 -8 -20 -6 -20 3 0 10 9 16 20 6 11 8 20 6 20 -3 0
-10 -9 -16 -20z"/>
<path d="M320 169 l-45 -40 53 36 c28 20 52 39 52 41 0 11 -19 -1 -60 -37z"/>
<path d="M41 174 c6 -7 16 -11 21 -8 11 7 3 17 -18 20 -12 2 -13 -1 -3 -12z"/>
<path d="M66 148 c-15 -47 -16 -72 -4 -79 21 -14 33 -10 14 4 -11 8 -15 19
-10 30 5 15 9 15 22 5 13 -11 13 -9 -1 13 -10 14 -14 29 -10 32 3 4 3 7 -1 7
-3 0 -8 -6 -10 -12z"/>
<path d="M335 109 c-22 -10 -31 -16 -20 -13 11 3 29 8 40 11 20 4 20 4 1 -11
-18 -14 -18 -16 -3 -16 10 0 20 7 23 15 12 29 -2 34 -41 14z"/>
<path d="M308 73 c7 -3 16 -2 19 1 4 3 -2 6 -13 5 -11 0 -14 -3 -6 -6z"/>
<path d="M121 46 c14 -7 39 -16 55 -19 28 -6 28 -6 4 4 -14 6 -33 15 -42 20
-10 5 -23 9 -30 9 -7 0 -1 -6 13 -14z"/>
<path d="M240 15 c-7 -9 -8 -15 -2 -15 5 0 12 7 16 15 7 19 2 19 -14 0z"/>
</g>
</svg>
