<?xml version="1.0" encoding="UTF-8" standalone="no"?>
<svg width="378px" height="309px" viewBox="0 0 378 309" version="1.1" xmlns="http://www.w3.org/2000/svg" xmlns:xlink="http://www.w3.org/1999/xlink">
    <!-- Generator: Sketch 44.1 (41455) - http://www.bohemiancoding.com/sketch -->
    <title>Fill 1</title>
    <desc>Created with Sketch.</desc>
    <defs></defs>
    <g id="Symbols" stroke="none" stroke-width="1" fill="none" fill-rule="evenodd">
        <g id="Logo-szentjaka-kek" transform="translate(-10.000000, -4.000000)" fill="#ffffff">
            <path d="M126.439208,42.2536882 C128.210387,39.4232204 137.508371,42.1008429 144.505239,43.3151137 C155.367528,45.2030357 177.837419,41.3592604 176.975918,42.7263763 C170.364459,53.2217511 153.0069,76.5731109 133.050667,81.8802381 C127.221361,83.4313345 137.301497,69.6158209 134.46761,57.8212614 C131.633723,46.0267019 124.115421,45.967262 126.439208,42.2536882 M262.530837,57.8212614 C259.697053,69.6158209 269.776821,83.4313345 263.947728,81.8802381 C243.995058,76.5731109 226.638133,53.2217511 220.024082,42.7263763 C219.162611,41.3592604 241.631682,45.2030357 252.496409,43.3151137 C259.490187,42.1008429 268.790665,39.4232204 270.56178,42.2536882 C272.882648,45.967262 265.36462,46.0267019 262.530837,57.8212614 M205.16537,31.7838718 C205.16537,31.7838718 221.111386,62.4453232 239.910209,77.5360347 C258.115055,92.1467179 290.36119,95.5011675 296.546554,95.5011675 C302.734773,95.5011675 300.356007,109.393245 301.783838,111.310484 C303.211669,113.227723 310.824864,119.933748 307.969202,123.765352 C305.11354,127.59983 308.922993,135.263037 302.734773,141.491907 C296.546554,147.720778 277.627793,134.785883 260.019781,121.370959 C242.408913,107.956035 223.253133,83.0463003 223.253133,83.0463003 C223.253133,83.0463003 256.807161,139.336092 292.263061,153.946775 C297.417531,156.070972 297.023449,160.175646 295.595618,163.530095 C294.167787,166.884545 296.072514,175.504934 293.690892,184.128198 C291.312125,192.751462 278.938542,197.063093 276.08288,199.460361 C273.227218,201.857628 273.078723,205.565631 267.038998,202.811936 C246.812344,193.590793 210.399798,72.9858259 210.399798,72.9858259 C210.399798,72.9858259 226.465752,174.188449 263.232401,215.269678 C264.380377,216.554544 259.422948,219.581309 253.711624,226.767363 C248.0003,233.953416 232.294159,233.953416 223.727173,211.915228 C215.160187,189.87704 202.309708,82.5662719 202.309708,82.5662719 C202.309708,82.5662719 197.906277,163.409369 220.397471,230.118938 C221.628261,233.775202 214.683291,235.390626 210.399798,236.827837 C206.116305,238.265048 202.021286,241.452781 198.934315,241.444157 C195.878757,241.438409 191.755181,238.221931 187.600193,236.827837 C183.3167,235.390626 176.37173,233.775202 177.605376,230.118938 C200.093714,163.409369 195.693139,82.5662719 195.693139,82.5662719 C195.693139,82.5662719 182.84266,189.87704 174.275674,211.915228 C165.708688,233.953416 150.002547,233.953416 144.291223,226.767363 C138.579899,219.581309 133.622469,216.554544 134.770445,215.269678 C171.537094,174.188449 187.600193,72.9858259 187.600193,72.9858259 C187.600193,72.9858259 151.190502,193.590793 130.960992,202.811936 C124.924123,205.565631 124.775628,201.857628 121.919966,199.460361 C119.064304,197.063093 106.690721,192.751462 104.311954,184.128198 C101.930332,175.504934 103.835059,166.884545 102.407228,163.530095 C100.979397,160.175646 100.58246,156.070972 105.739785,153.946775 C141.195685,139.336092 174.749714,83.0463003 174.749714,83.0463003 C174.749714,83.0463003 155.591077,107.956035 137.983065,121.370959 C120.375053,134.785883 101.456292,147.720778 95.2680729,141.491907 C89.0798533,135.263037 92.8864507,127.59983 90.0307887,123.765352 C87.1751267,119.933748 94.7911773,113.227723 96.2190083,111.310484 C97.6468393,109.393245 95.2680729,95.5011675 101.456292,95.5011675 C107.641656,95.5011675 139.887792,92.1467179 158.089781,77.5360347 C176.89146,62.4453232 192.837477,31.7838718 192.837477,31.7838718 C192.837477,31.7838718 148.09782,-4.62354775 88.1289178,5.91408054 C28.1600157,16.4545832 8.64442151,66.7569551 10.0722525,113.227723 C11.5000835,159.695617 73.8506078,212.87241 73.8506078,212.87241 L198.97715,313 L324.152238,212.87241 C324.152238,212.87241 386.499907,159.695617 387.927738,113.227723 C389.355569,66.7569551 369.842831,16.4545832 309.873928,5.91408054 C249.905026,-4.62354775 205.16537,31.7838718 205.16537,31.7838718 Z" id="Fill-1"></path>
        </g>
    </g>
</svg>